{"title":"Heaven`s Lost Property","uid":9381617,"size":1028556971,"categoryP":"video","categoryS":"tv_shows","magnet":"?xt=urn:btih:1f53c8bb84ae51e3bb14b77eeef80b84be84018f&amp;dn=Heaven%60s+Lost+Property&amp;tr=udp%3A%2F%2Ftracker.openbittorrent.com%3A80&amp;tr=udp%3A%2F%2Fopen.demonii.com%3A1337&amp;tr=udp%3A%2F%2Ftracker.coppersurfer.tk%3A6969&amp;tr=udp%3A%2F%2Fexodus.desync.com%3A6969","seeders":1,"leechers":0,"uploader":"p7trick","files":-1,"time":1387724038,"description":"downloaded from watchcartoononline\n\n\nHeaven`s Lost Property (Sora no Otoshimono) ENGLISH DUBBED eps 1-13\nHeaven`s Lost Property (Sora no Otoshimono) ENGLISH DUBBED OVA\n\n_________________________________________________________\n\nFormat                                   : MPEG-4\nFormat profile                           : Base Media\nCodec ID                                 : isom\nFile size                                : 68.6 MiB\nDuration                                 : 23mn 42s\nOverall bit rate                         : 404 Kbps\nWriting application                      : Lavf55.3.100\n\nVideo\nID                                       : 1\nFormat                                   : AVC\nFormat/Info                              : Advanced Video Codec\nFormat profile                           : &lt;a class=&quot;__cf_email__&quot; href=&quot;/cdn-cgi/l/email-protection&quot; data-cfemail=&quot;e1a38092848d888f84a1add2cfd1&quot;&gt;[email&amp;#160;protected]&lt;/a&gt;&lt;script cf-hash='f9e31' type=&quot;text/javascript&quot;&gt;\n/* &lt;![CDATA[ */!function(){try{var t=&quot;currentScript&quot;in document?document.currentScript:function(){for(var t=document.getElementsByTagName(&quot;script&quot;),e=t.length;e--;)if(t[e].getAttribute(&quot;cf-hash&quot;))return t[e]}();if(t&amp;&amp;t.previousSibling){var e,r,n,i,c=t.previousSibling,a=c.getAttribute(&quot;data-cfemail&quot;);if(a){for(e=&quot;&quot;,r=parseInt(a.substr(0,2),16),n=2;a.length-n;n+=2)i=parseInt(a.substr(n,2),16)^r,e+=String.fromCharCode(i);e=document.createTextNode(e),c.parentNode.replaceChild(e,c)}}}catch(u){}}();/* ]]&gt; */&lt;/script&gt;\nFormat settings, CABAC                   : No\nFormat settings, ReFrames                : 5 frames\nCodec ID                                 : avc1\nCodec ID/Info                            : Advanced Video Coding\nDuration                                 : 23mn 42s\nBit rate                                 : 272 Kbps\nWidth                                    : 640 pixels\nHeight                                   : 360 pixels\nDisplay aspect ratio                     : 16:9\nFrame rate mode                          : Constant\nFrame rate                               : 23.976 fps\nColor space                              : YUV\nChroma subsampling                       : 4:2:0\nBit depth                                : 8 bits\nScan type                                : Progressive\nBits/(Pixel*Frame)                       : 0.049\nStream size                              : 46.0 MiB (67%)\nWriting library                          : x264 core 130 r2274 c832fe9\n\n\nAudio\nID                                       : 2\nFormat                                   : AAC\nFormat/Info                              : Advanced Audio Codec\nFormat profile                           : LC\nCodec ID                                 : 40\nDuration                                 : 23mn 42s\nBit rate mode                            : Constant\nBit rate                                 : 128 Kbps\nChannel(s)                               : 2 channels\nChannel positions                        : Front: L R\nSampling rate                            : 44.1 KHz\nCompression mode                         : Lossy\nStream size                              : 21.7 MiB (32%)\nLanguage                                 : English\n\n_________________________________________________________\n\nSummary:\nSakurai Tomoki is a normal student whose motto is: &quot;Peace and quiet is the best&quot;. The only thing abnormal in his life are the dreams of a girl whose face he can never remember, always awaking with tears in his eyes. He tries to ignore the dream, but one day a beautiful angel descends from the sky...\n\nfor updates:\ntwitter - @p7tricktorrent\nFacebook - /p7tricktorrent\n_________________________________________________________\n\nSEED!\n\nshare ratio:\n&quot;Scumbag = 0.1:1\nLeecher = 0.999:1\nMinimum = 1:1\nGood = 3:1\nGreat = 5:1\nAwesome = 10:1\n1337 = 100:1&quot;\t\t\t\t","torrent":{"xt":"urn:btih:1f53c8bb84ae51e3bb14b77eeef80b84be84018f","amp;dn":"Heaven%60s+Lost+Property","amp;tr":["udp%3A%2F%2Ftracker.openbittorrent.com%3A80","udp%3A%2F%2Fopen.demonii.com%3A1337","udp%3A%2F%2Ftracker.coppersurfer.tk%3A6969","udp%3A%2F%2Fexodus.desync.com%3A6969"],"infoHash":"1f53c8bb84ae51e3bb14b77eeef80b84be84018f","infoHashBuffer":{"type":"Buffer","data":[31,83,200,187,132,174,81,227,187,20,183,126,238,248,11,132,190,132,1,143]},"announce":[],"urlList":[]}}